<svg viewBox="0 0 48 48" xmlns="http://www.w3.org/2000/svg">
  <g fill="none" fill-rule="evenodd">
    <rect fill="#CAC1D5" x="2" y="12" width="44" height="26" rx="1"/>
    <rect fill="#796399" opacity="0.971512278" x="16" y="24" width="3" height="5" rx="1"/>
    <rect fill="#796399" opacity="0.971512278" x="21" y="25" width="3" height="3" rx="1"/>
    <path d="M17,24 L18,24 C18.5522847,24 19,24.4477153 19,25 L19,26 L19,26 L16,26 L16,25 C16,24.4477153 16.4477153,24 17,24 Z" fill="#B0A3C3"/>
    <path d="M5,24 C5,23.4477153 5.44771525,23 6,23 L13,23 C13.5522847,23 14,23.4477153 14,24 L14,27 L11.7278931,29.6507914 C11.5379109,29.8724373 11.2605614,30 10.9686365,30 L10.9686365,30 L8.03136349,30 C7.73943861,30 7.46208909,29.8724373 7.27210689,29.6507914 L7.27210689,29.6507914 L5,27 L5,24 Z" fill="#796399" opacity="0.971512278"/>
    <rect fill="#CAC1D5" x="7" y="24" width="1" height="2" rx="0.5"/>
    <rect fill="#CAC1D5" x="9" y="27" width="1" height="2" rx="0.5"/>
    <rect fill="#CAC1D5" x="11" y="24" width="1" height="2" rx="0.5"/>
    <circle fill="#796399" opacity="0.971512278" cx="3.5" cy="14.5" r="1"/>
    <circle fill="#796399" opacity="0.971512278" cx="15.5" cy="14.5" r="1"/>
    <circle fill="#796399" opacity="0.971512278" cx="27.5" cy="14.5" r="1"/>
    <circle fill="#796399" opacity="0.971512278" cx="7.5" cy="14.5" r="1"/>
    <circle fill="#796399" opacity="0.971512278" cx="19.5" cy="14.5" r="1"/>
    <circle fill="#796399" opacity="0.971512278" cx="31.5" cy="14.5" r="1"/>
    <circle fill="#796399" opacity="0.971512278" cx="11.5" cy="14.5" r="1"/>
    <circle fill="#796399" opacity="0.971512278" cx="23.5" cy="14.5" r="1"/>
    <circle fill="#796399" opacity="0.971512278" cx="35.5" cy="14.5" r="1"/>
    <circle fill="#796399" opacity="0.971512278" cx="39.5" cy="14.5" r="1"/>
    <circle fill="#796399" opacity="0.971512278" cx="5.5" cy="14.5" r="1"/>
    <circle fill="#796399" opacity="0.971512278" cx="17.5" cy="14.5" r="1"/>
    <circle fill="#796399" opacity="0.971512278" cx="29.5" cy="14.5" r="1"/>
    <circle fill="#796399" opacity="0.971512278" cx="9.5" cy="14.5" r="1"/>
    <circle fill="#796399" opacity="0.971512278" cx="21.5" cy="14.5" r="1"/>
    <circle fill="#796399" opacity="0.971512278" cx="33.5" cy="14.5" r="1"/>
    <circle fill="#796399" opacity="0.971512278" cx="13.5" cy="14.5" r="1"/>
    <circle fill="#796399" opacity="0.971512278" cx="25.5" cy="14.5" r="1"/>
    <circle fill="#796399" opacity="0.971512278" cx="37.5" cy="14.5" r="1"/>
    <circle fill="#796399" opacity="0.971512278" cx="41.5" cy="14.5" r="1"/>
    <circle fill="#796399" opacity="0.971512278" cx="43.5" cy="14.5" r="1"/>
    <circle fill="#796399" opacity="0.971512278" cx="3.5" cy="16.5" r="1"/>
    <circle fill="#796399" opacity="0.971512278" cx="15.5" cy="16.5" r="1"/>
    <circle fill="#796399" opacity="0.971512278" cx="27.5" cy="16.5" r="1"/>
    <circle fill="#796399" opacity="0.971512278" cx="7.5" cy="16.5" r="1"/>
    <circle fill="#796399" opacity="0.971512278" cx="19.5" cy="16.5" r="1"/>
    <circle fill="#796399" opacity="0.971512278" cx="31.5" cy="16.5" r="1"/>
    <circle fill="#796399" opacity="0.971512278" cx="11.5" cy="16.5" r="1"/>
    <circle fill="#796399" opacity="0.971512278" cx="23.5" cy="16.5" r="1"/>
    <circle fill="#796399" opacity="0.971512278" cx="35.5" cy="16.5" r="1"/>
    <circle fill="#796399" opacity="0.971512278" cx="39.5" cy="16.5" r="1"/>
    <circle fill="#796399" opacity="0.971512278" cx="5.5" cy="16.5" r="1"/>
    <circle fill="#796399" opacity="0.971512278" cx="17.5" cy="16.5" r="1"/>
    <circle fill="#796399" opacity="0.971512278" cx="29.5" cy="16.5" r="1"/>
    <circle fill="#796399" opacity="0.971512278" cx="9.5" cy="16.5" r="1"/>
    <circle fill="#796399" opacity="0.971512278" cx="21.5" cy="16.5" r="1"/>
    <circle fill="#796399" opacity="0.971512278" cx="33.5" cy="16.5" r="1"/>
    <circle fill="#796399" opacity="0.971512278" cx="13.5" cy="16.5" r="1"/>
    <circle fill="#796399" opacity="0.971512278" cx="25.5" cy="16.5" r="1"/>
    <circle fill="#796399" opacity="0.971512278" cx="37.5" cy="16.5" r="1"/>
    <circle fill="#796399" opacity="0.971512278" cx="41.5" cy="16.5" r="1"/>
    <circle fill="#796399" opacity="0.971512278" cx="43.5" cy="16.5" r="1"/>
    <circle fill="#796399" opacity="0.971512278" cx="3.5" cy="18.5" r="1"/>
    <circle fill="#796399" opacity="0.971512278" cx="15.5" cy="18.5" r="1"/>
    <circle fill="#796399" opacity="0.971512278" cx="27.5" cy="18.5" r="1"/>
    <circle fill="#796399" opacity="0.971512278" cx="7.5" cy="18.5" r="1"/>
    <circle fill="#796399" opacity="0.971512278" cx="19.5" cy="18.5" r="1"/>
    <circle fill="#796399" opacity="0.971512278" cx="31.5" cy="18.5" r="1"/>
    <circle fill="#796399" opacity="0.971512278" cx="11.5" cy="18.5" r="1"/>
    <circle fill="#796399" opacity="0.971512278" cx="23.5" cy="18.5" r="1"/>
    <circle fill="#796399" opacity="0.971512278" cx="35.5" cy="18.5" r="1"/>
    <circle fill="#796399" opacity="0.971512278" cx="39.5" cy="18.5" r="1"/>
    <circle fill="#796399" opacity="0.971512278" cx="5.5" cy="18.5" r="1"/>
    <circle fill="#796399" opacity="0.971512278" cx="17.5" cy="18.5" r="1"/>
    <circle fill="#796399" opacity="0.971512278" cx="29.5" cy="18.5" r="1"/>
    <circle fill="#796399" opacity="0.971512278" cx="9.5" cy="18.5" r="1"/>
    <circle fill="#796399" opacity="0.971512278" cx="21.5" cy="18.5" r="1"/>
    <circle fill="#796399" opacity="0.971512278" cx="33.5" cy="18.5" r="1"/>
    <circle fill="#796399" opacity="0.971512278" cx="13.5" cy="18.5" r="1"/>
    <circle fill="#796399" opacity="0.971512278" cx="25.5" cy="18.5" r="1"/>
    <circle fill="#796399" opacity="0.971512278" cx="37.5" cy="18.5" r="1"/>
    <circle fill="#796399" opacity="0.971512278" cx="41.5" cy="18.5" r="1"/>
    <circle fill="#796399" opacity="0.971512278" cx="43.5" cy="18.5" r="1"/>
    <circle fill="#796399" opacity="0.971512278" cx="3.5" cy="32.5" r="1"/>
    <circle fill="#796399" opacity="0.971512278" cx="15.5" cy="32.5" r="1"/>
    <circle fill="#796399" opacity="0.971512278" cx="27.5" cy="32.5" r="1"/>
    <circle fill="#796399" opacity="0.971512278" cx="7.5" cy="32.5" r="1"/>
    <circle fill="#796399" opacity="0.971512278" cx="19.5" cy="32.5" r="1"/>
    <circle fill="#796399" opacity="0.971512278" cx="31.5" cy="32.5" r="1"/>
    <circle fill="#796399" opacity="0.971512278" cx="11.5" cy="32.5" r="1"/>
    <circle fill="#796399" opacity="0.971512278" cx="23.5" cy="32.5" r="1"/>
    <circle fill="#796399" opacity="0.971512278" cx="35.5" cy="32.5" r="1"/>
    <circle fill="#796399" opacity="0.971512278" cx="39.5" cy="32.5" r="1"/>
    <circle fill="#796399" opacity="0.971512278" cx="5.5" cy="32.5" r="1"/>
    <circle fill="#796399" opacity="0.971512278" cx="17.5" cy="32.5" r="1"/>
    <circle fill="#796399" opacity="0.971512278" cx="29.5" cy="32.5" r="1"/>
    <circle fill="#796399" opacity="0.971512278" cx="9.5" cy="32.5" r="1"/>
    <circle fill="#796399" opacity="0.971512278" cx="21.5" cy="32.5" r="1"/>
    <circle fill="#796399" opacity="0.971512278" cx="33.5" cy="32.5" r="1"/>
    <circle fill="#796399" opacity="0.971512278" cx="13.5" cy="32.5" r="1"/>
    <circle fill="#796399" opacity="0.971512278" cx="25.5" cy="32.5" r="1"/>
    <circle fill="#796399" opacity="0.971512278" cx="37.5" cy="32.5" r="1"/>
    <circle fill="#796399" opacity="0.971512278" cx="41.5" cy="32.5" r="1"/>
    <circle fill="#796399" opacity="0.971512278" cx="43.5" cy="32.5" r="1"/>
    <circle fill="#796399" opacity="0.971512278" cx="27.5" cy="30.5" r="1"/>
    <circle fill="#796399" opacity="0.971512278" cx="31.5" cy="30.5" r="1"/>
    <circle fill="#796399" opacity="0.971512278" cx="35.5" cy="30.5" r="1"/>
    <circle fill="#796399" opacity="0.971512278" cx="39.5" cy="30.5" r="1"/>
    <circle fill="#796399" opacity="0.971512278" cx="29.5" cy="30.5" r="1"/>
    <circle fill="#796399" opacity="0.971512278" cx="33.5" cy="30.5" r="1"/>
    <circle fill="#796399" opacity="0.971512278" cx="37.5" cy="30.5" r="1"/>
    <circle fill="#796399" opacity="0.971512278" cx="41.5" cy="30.5" r="1"/>
    <circle fill="#796399" opacity="0.971512278" cx="43.5" cy="30.5" r="1"/>
    <circle fill="#796399" opacity="0.971512278" cx="3.5" cy="20.5" r="1"/>
    <circle fill="#796399" opacity="0.971512278" cx="15.5" cy="20.5" r="1"/>
    <circle fill="#796399" opacity="0.971512278" cx="27.5" cy="20.5" r="1"/>
    <circle fill="#796399" opacity="0.971512278" cx="7.5" cy="20.5" r="1"/>
    <circle fill="#796399" opacity="0.971512278" cx="19.5" cy="20.5" r="1"/>
    <circle fill="#796399" opacity="0.971512278" cx="31.5" cy="20.5" r="1"/>
    <circle fill="#796399" opacity="0.971512278" cx="11.5" cy="20.5" r="1"/>
    <circle fill="#796399" opacity="0.971512278" cx="23.5" cy="20.5" r="1"/>
    <circle fill="#796399" opacity="0.971512278" cx="35.5" cy="20.5" r="1"/>
    <circle fill="#796399" opacity="0.971512278" cx="39.5" cy="20.5" r="1"/>
    <circle fill="#796399" opacity="0.971512278" cx="5.5" cy="20.5" r="1"/>
    <circle fill="#796399" opacity="0.971512278" cx="17.5" cy="20.5" r="1"/>
    <circle fill="#796399" opacity="0.971512278" cx="29.5" cy="20.5" r="1"/>
    <circle fill="#796399" opacity="0.971512278" cx="9.5" cy="20.5" r="1"/>
    <circle fill="#796399" opacity="0.971512278" cx="21.5" cy="20.5" r="1"/>
    <circle fill="#796399" opacity="0.971512278" cx="33.5" cy="20.5" r="1"/>
    <circle fill="#796399" opacity="0.971512278" cx="13.5" cy="20.5" r="1"/>
    <circle fill="#796399" opacity="0.971512278" cx="25.5" cy="20.5" r="1"/>
    <circle fill="#796399" opacity="0.971512278" cx="37.5" cy="20.5" r="1"/>
    <circle fill="#796399" opacity="0.971512278" cx="41.5" cy="20.5" r="1"/>
    <circle fill="#796399" opacity="0.971512278" cx="43.5" cy="20.5" r="1"/>
    <circle fill="#796399" opacity="0.971512278" cx="27.5" cy="22.5" r="1"/>
    <circle fill="#796399" opacity="0.971512278" cx="31.5" cy="22.5" r="1"/>
    <circle fill="#796399" opacity="0.971512278" cx="35.5" cy="22.5" r="1"/>
    <circle fill="#796399" opacity="0.971512278" cx="39.5" cy="22.5" r="1"/>
    <circle fill="#796399" opacity="0.971512278" cx="29.5" cy="22.5" r="1"/>
    <circle fill="#796399" opacity="0.971512278" cx="33.5" cy="22.5" r="1"/>
    <circle fill="#796399" opacity="0.971512278" cx="37.5" cy="22.5" r="1"/>
    <circle fill="#796399" opacity="0.971512278" cx="41.5" cy="22.5" r="1"/>
    <circle fill="#796399" opacity="0.971512278" cx="43.5" cy="22.5" r="1"/>
    <circle fill="#796399" opacity="0.971512278" cx="27.5" cy="24.5" r="1"/>
    <circle fill="#796399" opacity="0.971512278" cx="31.5" cy="24.5" r="1"/>
    <circle fill="#796399" opacity="0.971512278" cx="35.5" cy="24.5" r="1"/>
    <circle fill="#796399" opacity="0.971512278" cx="39.5" cy="24.5" r="1"/>
    <circle fill="#796399" opacity="0.971512278" cx="29.5" cy="24.5" r="1"/>
    <circle fill="#796399" opacity="0.971512278" cx="33.5" cy="24.5" r="1"/>
    <circle fill="#796399" opacity="0.971512278" cx="37.5" cy="24.5" r="1"/>
    <circle fill="#796399" opacity="0.971512278" cx="41.5" cy="24.5" r="1"/>
    <circle fill="#796399" opacity="0.971512278" cx="43.5" cy="24.5" r="1"/>
    <circle fill="#796399" opacity="0.971512278" cx="27.5" cy="26.5" r="1"/>
    <circle fill="#796399" opacity="0.971512278" cx="31.5" cy="26.5" r="1"/>
    <circle fill="#796399" opacity="0.971512278" cx="35.5" cy="26.5" r="1"/>
    <circle fill="#796399" opacity="0.971512278" cx="39.5" cy="26.5" r="1"/>
    <circle fill="#796399" opacity="0.971512278" cx="29.5" cy="26.5" r="1"/>
    <circle fill="#796399" opacity="0.971512278" cx="33.5" cy="26.5" r="1"/>
    <circle fill="#796399" opacity="0.971512278" cx="37.5" cy="26.5" r="1"/>
    <circle fill="#796399" opacity="0.971512278" cx="41.5" cy="26.5" r="1"/>
    <circle fill="#796399" opacity="0.971512278" cx="43.5" cy="26.5" r="1"/>
    <circle fill="#796399" opacity="0.971512278" cx="27.5" cy="28.5" r="1"/>
    <circle fill="#796399" opacity="0.971512278" cx="31.5" cy="28.5" r="1"/>
    <circle fill="#796399" opacity="0.971512278" cx="35.5" cy="28.5" r="1"/>
    <circle fill="#796399" opacity="0.971512278" cx="39.5" cy="28.5" r="1"/>
    <circle fill="#796399" opacity="0.971512278" cx="29.5" cy="28.5" r="1"/>
    <circle fill="#796399" opacity="0.971512278" cx="33.5" cy="28.5" r="1"/>
    <circle fill="#796399" opacity="0.971512278" cx="37.5" cy="28.5" r="1"/>
    <circle fill="#796399" opacity="0.971512278" cx="41.5" cy="28.5" r="1"/>
    <circle fill="#796399" opacity="0.971512278" cx="43.5" cy="28.5" r="1"/>
    <circle fill="#796399" opacity="0.971512278" cx="3.5" cy="34.5" r="1"/>
    <circle fill="#796399" opacity="0.971512278" cx="15.5" cy="34.5" r="1"/>
    <circle fill="#796399" opacity="0.971512278" cx="27.5" cy="34.5" r="1"/>
    <circle fill="#796399" opacity="0.971512278" cx="7.5" cy="34.5" r="1"/>
    <circle fill="#796399" opacity="0.971512278" cx="19.5" cy="34.5" r="1"/>
    <circle fill="#796399" opacity="0.971512278" cx="31.5" cy="34.5" r="1"/>
    <circle fill="#796399" opacity="0.971512278" cx="11.5" cy="34.5" r="1"/>
    <circle fill="#796399" opacity="0.971512278" cx="23.5" cy="34.5" r="1"/>
    <circle fill="#796399" opacity="0.971512278" cx="35.5" cy="34.5" r="1"/>
    <circle fill="#796399" opacity="0.971512278" cx="39.5" cy="34.5" r="1"/>
    <circle fill="#796399" opacity="0.971512278" cx="5.5" cy="34.5" r="1"/>
    <circle fill="#796399" opacity="0.971512278" cx="17.5" cy="34.5" r="1"/>
    <circle fill="#796399" opacity="0.971512278" cx="29.5" cy="34.5" r="1"/>
    <circle fill="#796399" opacity="0.971512278" cx="9.5" cy="34.5" r="1"/>
    <circle fill="#796399" opacity="0.971512278" cx="21.5" cy="34.5" r="1"/>
    <circle fill="#796399" opacity="0.971512278" cx="33.5" cy="34.5" r="1"/>
    <circle fill="#796399" opacity="0.971512278" cx="13.5" cy="34.5" r="1"/>
    <circle fill="#796399" opacity="0.971512278" cx="25.5" cy="34.5" r="1"/>
    <circle fill="#796399" opacity="0.971512278" cx="37.5" cy="34.5" r="1"/>
    <circle fill="#796399" opacity="0.971512278" cx="41.5" cy="34.5" r="1"/>
    <circle fill="#796399" opacity="0.971512278" cx="43.5" cy="34.5" r="1"/>
  </g>
</svg>