<svg viewBox="0 0 48 48" xmlns="http://www.w3.org/2000/svg">
  <g fill="none" fill-rule="evenodd">
    <path d="M35.3153789,32.1781061 L45.7871585,32.9836276 C45.9072597,32.9928661 46,33.0930143 46,33.2134703 L46,35 L46,35 C42.4458687,36.3222876 40.0584035,37.6247693 38.8376044,38.9074453 C37.6168053,40.1901212 36.3376038,42.5543061 35,46 L33.7224358,46 C33.5983242,46 33.4964907,45.9017385 33.4920609,45.777706 L33.0828836,34.3207395 C33.0419874,33.1756469 33.9371154,32.2142131 35.082208,32.1733169 C35.1599599,32.1705401 35.2378066,32.172139 35.3153789,32.1781061 Z" fill="#9883B4" opacity="0.971512278" transform="translate(39.500000, 39.000000) rotate(-180.000000) translate(-39.500000, -39.000000)"/>
    <g fill="#796399" opacity="0.971512278">
      <path d="M8.59192754,8.00847614 L18.8501436,17.6430273 L20.3485347,16.9465537 C18.3506799,8.97580056 16.7370279,4.75826611 15.5075788,4.2939504 C14.2781297,3.82963468 11.9729126,5.06780993 8.59192754,8.00847614 Z" transform="translate(2.000000, 2.000000)"/>
      <path d="M20.0952356,5.88747188 L30.4306331,15.5166231 L31.9330467,14.8283153 C29.8991543,6.88455402 28.2640483,2.67936981 27.0277286,2.21276269 C25.7914089,1.74615558 23.4805779,2.97105864 20.0952356,5.88747188 Z" transform="translate(2.000000, 2.000000) translate(26.014141, 8.816425) rotate(51.000000) translate(-26.014141, -8.816425)"/>
      <path d="M28.951181,13.6992067 L39.2636386,23.2533349 L40.7732024,22.5591904 C38.7741978,14.6448772 37.1561873,10.4580724 35.9191709,9.99877603 C34.6821544,9.53947967 32.3594911,10.7729566 28.951181,13.6992067 Z" transform="translate(2.000000, 2.000000) translate(34.862192, 16.579323) rotate(103.000000) translate(-34.862192, -16.579323)"/>
      <path d="M28.4679703,25.5075626 L38.7134249,35.1003783 L40.2157937,34.4006578 C38.237347,26.4462866 36.6332053,22.2389767 35.4033686,21.7787279 C34.1735319,21.3184792 31.8617324,22.5614241 28.4679703,25.5075626 Z" transform="translate(2.000000, 2.000000) translate(34.341882, 28.392914) rotate(154.000000) translate(-34.341882, -28.392914)"/>
      <path d="M18.9426071,32.3992461 L29.2415678,42.0494359 L30.7400686,41.3580958 C28.7173558,33.3925507 27.0897917,29.1762156 25.8573764,28.7090906 C24.6249611,28.2419656 22.320038,29.4720174 18.9426071,32.3992461 Z" transform="translate(2.000000, 2.000000) translate(24.841338, 35.331050) rotate(206.000000) translate(-24.841338, -35.331050)"/>
      <path d="M7.60622649,29.2889317 L17.9484496,38.8749772 L19.4558617,38.1854947 C17.4322318,30.2649654 15.8011914,26.0731399 14.5627405,25.6100183 C13.3242896,25.1468966 11.0054516,26.3732011 7.60622649,29.2889317 Z" transform="translate(2.000000, 2.000000) translate(13.531044, 32.194889) rotate(257.000000) translate(-13.531044, -32.194889)"/>
      <path d="M3.01389831,18.4586024 L13.2828793,28.016536 L14.7900941,27.3178256 C12.8111487,19.3879344 11.2051165,15.193953 9.97199762,14.7358813 C8.7388787,14.2778097 6.41951227,15.5187167 3.01389831,18.4586024 Z" transform="translate(2.000000, 2.000000) translate(8.901996, 21.329895) rotate(309.000000) translate(-8.901996, -21.329895)"/>
    </g>
    <path d="M4.23582361,2.08599322 L14.778338,2.49147454 C14.9021129,2.49623511 15,2.59795946 15,2.72182593 L15,4.5 L15,4.5 C11.4458687,5.82228758 9.05840352,7.12476935 7.8376044,8.40744529 C6.61680527,9.69012122 5.33760381,12.0543061 4,15.5 L2.72214192,15.5 C2.59814838,15.5 2.49636737,15.4019189 2.49177816,15.2780103 L2.08281273,4.23594367 C2.04040393,3.09090614 2.93426113,2.12829069 4.07929867,2.08588189 C4.13145648,2.08395012 4.18366861,2.08398725 4.23582361,2.08599322 Z" fill="#9883B4" opacity="0.971512278"/>
    <path d="M35.2358236,2.08599322 L45.778338,2.49147454 C45.9021129,2.49623511 46,2.59795946 46,2.72182593 L46,4.5 L46,4.5 C42.4458687,5.82228758 40.0584035,7.12476935 38.8376044,8.40744529 C37.6168053,9.69012122 36.3376038,12.0543061 35,15.5 L33.7221419,15.5 C33.5981484,15.5 33.4963674,15.4019189 33.4917782,15.2780103 L33.0828127,4.23594367 C33.0404039,3.09090614 33.9342611,2.12829069 35.0792987,2.08588189 C35.1314565,2.08395012 35.1836686,2.08398725 35.2358236,2.08599322 Z" fill="#9883B4" opacity="0.971512278" transform="translate(39.500000, 8.750000) scale(-1, 1) translate(-39.500000, -8.750000)"/>
    <circle cx="1.5" cy="1.5" r="1.5" transform="translate(4.000000, 4.000000)" fill="#CAC1D5" opacity="0.971512278"/>
    <circle cx="1.5" cy="1.5" r="1.5" transform="translate(41.000000, 4.000000)" fill="#CAC1D5" opacity="0.971512278"/>
    <circle cx="1.5" cy="1.5" r="1.5" transform="translate(41.000000, 41.000000)" fill="#CAC1D5" opacity="0.971512278"/>
    <g opacity="0.971512278">
      <path d="M2.23582361,0.0859932159 L12.778338,0.491474537 C12.9021129,0.496235112 13,0.597959458 13,0.72182593 L13,2.5 L13,2.5 C9.44586872,3.82228758 7.05840352,5.12476935 5.8376044,6.40744529 C4.61680527,7.69012122 3.33760381,10.0543061 2,13.5 L0.722141921,13.5 C0.598148375,13.5 0.496367366,13.4019189 0.491778159,13.2780103 L0.0828127287,2.23594367 C0.040403931,1.09090614 0.934261135,0.128290687 2.07929867,0.0858818895 C2.13145648,0.0839501189 2.18366861,0.0839872541 2.23582361,0.0859932159 Z" fill="#9883B4" transform="translate(8.750000, 39.500000) rotate(-90.000000) translate(-8.750000, -39.500000) translate(2.250000, 32.750000)"/>
      <circle cx="1.5" cy="1.5" r="1.5" transform="translate(8.750000, 39.500000) rotate(-90.000000) translate(-8.750000, -39.500000) translate(2.250000, 32.750000) translate(2.000000, 2.000000)" fill="#CAC1D5"/>
    </g>
    <circle stroke="#9985B5" stroke-width="2" cx="24" cy="24" r="20"/>
    <ellipse fill="#796399" opacity="0.971512278" cx="23.9577145" cy="24" rx="5.95771453" ry="6"/>
    <path d="M10.5665172,10.0325503 L20.8247332,19.6671015 L22.3231243,18.9706279 C20.3252695,10.9998747 18.7116176,6.78234027 17.4821685,6.31802455 C16.2527194,5.85370883 13.9475023,7.09188408 10.5665172,10.0325503 Z" fill="#796399" opacity="0.971512278"/>
    <path d="M24.0044065,3 L24.6798967,3.00839922 C26.5277874,3.05235939 28.626377,3.26213243 30.4996189,3.47727273 C31.1605011,3.5531745 32.4526156,3.74154487 34.3759623,4.04238382 C39.5589858,4.85308286 43.6003264,8.93558053 44.3770158,14.1003409 L44.4181877,14.399493 L44.4582901,14.7211299 C44.6936288,16.61286 44.83432,17.8188993 44.8803639,18.339248 C44.9740977,19.3985493 45.0147085,21.1478234 45.0021962,23.5870702 L44.9996189,24 C45.0190569,26.6556833 44.9793052,28.5426007 44.8803639,29.660752 C44.83432,30.1811007 44.6936288,31.38714 44.4582901,33.2788701 L44.4181877,33.600507 C43.7553404,38.9061903 39.6586594,43.1313268 34.3759623,43.9576162 C32.4526156,44.2584551 31.1605011,44.4468255 30.4996189,44.5227273 C28.626377,44.7378676 26.5277874,44.9476406 24.6798967,44.9916008 L24.0044065,45 L23.9996189,45 L23.3241288,44.9916008 C21.476238,44.9476406 19.3776485,44.7378676 17.5044065,44.5227273 C16.8435243,44.4468255 15.5514098,44.2584551 13.6280631,43.9576162 C8.44503958,43.1469171 4.40369901,39.0644195 3.6270096,33.8996591 L3.58583771,33.600507 L3.54573533,33.2788701 C3.31039664,31.38714 3.16970538,30.1811007 3.12366155,29.660752 C3.04555,28.7780009 3.00432948,27.4161021 3,25.5750555 L3.00023573,24.8130823 L3.00182923,24.4129298 L3.00182923,24.4129298 L3.0044065,24 C3.0023604,23.7204544 3.00097015,23.449427 3.00023573,23.1869177 L3,22.4249445 C3.00432948,20.5838979 3.04555,19.2219991 3.12366155,18.339248 C3.16970538,17.8188993 3.31039664,16.61286 3.54573533,14.7211299 L3.58583771,14.399493 C4.24868505,9.09380966 8.34536605,4.86867322 13.6280631,4.04238382 C15.5514098,3.74154487 16.8435243,3.5531745 17.5044065,3.47727273 C19.3776485,3.26213243 21.476238,3.05235939 23.3241288,3.00839922 L23.9996189,3 L24.0044065,3 Z M23.9996189,4 C12.9539239,4 3.99961892,12.954305 3.99961892,24 C3.99961892,35.045695 12.9539239,44 23.9996189,44 C35.0453139,44 43.9996189,35.045695 43.9996189,24 C43.9996189,12.954305 35.0453139,4 23.9996189,4 Z" fill="#CAC1D5"/>
  </g>
</svg>