<svg viewBox="0 0 48 48" xmlns="http://www.w3.org/2000/svg" xmlns:xlink="http://www.w3.org/1999/xlink">
  <defs>
    <radialGradient cx="50%" cy="0%" fx="50%" fy="0%" r="100%" gradientTransform="translate(0.500000,0.000000),scale(0.638889,1.000000),rotate(-90.000000),translate(-0.500000,-0.000000)" id="d">
      <stop stop-color="#FFF" offset="0%"/>
      <stop stop-color="#FFF" stop-opacity="0" offset="100%"/>
    </radialGradient>
    <linearGradient x1="50%" y1="0%" x2="50%" y2="99.5547421%" id="c">
      <stop stop-color="#9489A4" offset="0%"/>
      <stop stop-color="#7D679C" offset="100%"/>
    </linearGradient>
    <rect id="a" x="7" y="43" width="35" height="3" rx="0.5"/>
    <path d="M11,24.5 C11,24.7761424 10.7761424,25 10.5,25 L10.5,25 L6.5,25 C6.22385763,25 6,24.7761424 6,24.5 L6,24.5 L6,2.5 C6,2.22385763 6.22385763,2 6.5,2 L6.5,2 L10.5,2 C10.7761424,2 11,2.22385763 11,2.5 L11,2.5 L11,3 L41.5,3 C41.7761424,3 42,3.22385763 42,3.5 L42,5.5 C42,5.77614237 41.7761424,6 41.5,6 L38,6 L38,23.5 C38,23.7761424 37.7761424,24 37.5,24 L16.5,24 C16.2238576,24 16,23.7761424 16,23.5 L16,6 L11,6 Z" id="b"/>
  </defs>
  <g fill="none" fill-rule="evenodd">
    <use fill="#FFF" xlink:href="#a"/>
    <use fill="#7D679C" xlink:href="#a"/>
    <path d="M41.5,8 C41.7761424,8 42,8.22385763 42,8.5 L42,45 L7,45 L7,23 L5,23 L5,17 L7,17 L7,15 L5,15 L5,9 L7,9 L7,8.5 C7,8.22385763 7.22385763,8 7.5,8 L41.5,8 Z M8,5 L8,7 L5,7 L5,5 L8,5 Z" fill="#CAC1D5"/>
    <use fill="#FFF" xlink:href="#b"/>
    <use fill="url(#c)" xlink:href="#b"/>
    <use fill-opacity="0.6" fill="url(#d)" xlink:href="#b"/>
    <path d="M32.5 6C32.7761424 6 33 6.22385763 33 6.5L33 24 33 24 32 24 32 6.5C32 6.22385763 32.2238576 6 32.5 6zM35.5 6C35.7761424 6 36 6.22385763 36 6.5L36 24 36 24 35 24 35 6.5C35 6.22385763 35.2238576 6 35.5 6z" fill="#FFF" opacity="0.600000024"/>
    <rect fill="#796399" opacity="0.971512278" x="11" y="38" width="18" height="2" rx="0.5"/>
    <rect fill="#796399" opacity="0.971512278" x="11" y="28" width="18" height="2" rx="0.5"/>
    <rect fill="#796399" opacity="0.971512278" x="11" y="33" width="7" height="2" rx="0.5"/>
    <rect fill="#CAC1D5" transform="translate(13.500000, 14.500000) scale(-1, 1) translate(-13.500000, -14.500000)" x="11" y="5" width="5" height="19" rx="1"/>
    <rect fill="#CAC1D5" transform="translate(40.000000, 14.500000) scale(-1, 1) translate(-40.000000, -14.500000)" x="38" y="5" width="4" height="19" rx="1"/>
    <rect stroke="#FFF" opacity="0.600000024" x="20.5" y="12.5" width="7" height="7" rx="0.5"/>
    <circle fill="#7D679C" opacity="0.971512278" cx="35.5" cy="28.5" r="1"/>
    <circle fill="#7D679C" opacity="0.971512278" cx="37.5" cy="28.5" r="1"/>
    <circle fill="#7D679C" opacity="0.971512278" cx="39.5" cy="28.5" r="1"/>
    <circle fill="#7D679C" opacity="0.971512278" cx="35.5" cy="30.5" r="1"/>
    <circle fill="#7D679C" opacity="0.971512278" cx="37.5" cy="30.5" r="1"/>
    <circle fill="#7D679C" opacity="0.971512278" cx="39.5" cy="30.5" r="1"/>
    <circle fill="#7D679C" opacity="0.971512278" cx="35.5" cy="32.5" r="1"/>
    <circle fill="#7D679C" opacity="0.971512278" cx="37.5" cy="32.5" r="1"/>
    <circle fill="#7D679C" opacity="0.971512278" cx="39.5" cy="32.5" r="1"/>
    <circle fill="#7D679C" opacity="0.971512278" cx="35.5" cy="34.5" r="1"/>
    <circle fill="#7D679C" opacity="0.971512278" cx="37.5" cy="34.5" r="1"/>
    <circle fill="#7D679C" opacity="0.971512278" cx="39.5" cy="34.5" r="1"/>
    <circle fill="#7D679C" opacity="0.971512278" cx="35.5" cy="36.5" r="1"/>
    <circle fill="#7D679C" opacity="0.971512278" cx="37.5" cy="36.5" r="1"/>
    <circle fill="#7D679C" opacity="0.971512278" cx="39.5" cy="36.5" r="1"/>
    <path d="M12.5,22 C12.7761424,22 13,22.2238576 13,22.5 C13,22.7761424 12.7761424,23 12.5,23 C12.2238576,23 12,22.7761424 12,22.5 C12,22.2238576 12.2238576,22 12.5,22 Z M14.5,22 C14.7761424,22 15,22.2238576 15,22.5 C15,22.7761424 14.7761424,23 14.5,23 C14.2238576,23 14,22.7761424 14,22.5 C14,22.2238576 14.2238576,22 14.5,22 Z M12.5,20 C12.7761424,20 13,20.2238576 13,20.5 C13,20.7761424 12.7761424,21 12.5,21 C12.2238576,21 12,20.7761424 12,20.5 C12,20.2238576 12.2238576,20 12.5,20 Z M14.5,20 C14.7761424,20 15,20.2238576 15,20.5 C15,20.7761424 14.7761424,21 14.5,21 C14.2238576,21 14,20.7761424 14,20.5 C14,20.2238576 14.2238576,20 14.5,20 Z M12.5,18 C12.7761424,18 13,18.2238576 13,18.5 C13,18.7761424 12.7761424,19 12.5,19 C12.2238576,19 12,18.7761424 12,18.5 C12,18.2238576 12.2238576,18 12.5,18 Z M14.5,18 C14.7761424,18 15,18.2238576 15,18.5 C15,18.7761424 14.7761424,19 14.5,19 C14.2238576,19 14,18.7761424 14,18.5 C14,18.2238576 14.2238576,18 14.5,18 Z M12.5,16 C12.7761424,16 13,16.2238576 13,16.5 C13,16.7761424 12.7761424,17 12.5,17 C12.2238576,17 12,16.7761424 12,16.5 C12,16.2238576 12.2238576,16 12.5,16 Z M14.5,16 C14.7761424,16 15,16.2238576 15,16.5 C15,16.7761424 14.7761424,17 14.5,17 C14.2238576,17 14,16.7761424 14,16.5 C14,16.2238576 14.2238576,16 14.5,16 Z M12.5,14 C12.7761424,14 13,14.2238576 13,14.5 C13,14.7761424 12.7761424,15 12.5,15 C12.2238576,15 12,14.7761424 12,14.5 C12,14.2238576 12.2238576,14 12.5,14 Z M14.5,14 C14.7761424,14 15,14.2238576 15,14.5 C15,14.7761424 14.7761424,15 14.5,15 C14.2238576,15 14,14.7761424 14,14.5 C14,14.2238576 14.2238576,14 14.5,14 Z M12.5,12 C12.7761424,12 13,12.2238576 13,12.5 C13,12.7761424 12.7761424,13 12.5,13 C12.2238576,13 12,12.7761424 12,12.5 C12,12.2238576 12.2238576,12 12.5,12 Z M14.5,12 C14.7761424,12 15,12.2238576 15,12.5 C15,12.7761424 14.7761424,13 14.5,13 C14.2238576,13 14,12.7761424 14,12.5 C14,12.2238576 14.2238576,12 14.5,12 Z M12.5,10 C12.7761424,10 13,10.2238576 13,10.5 C13,10.7761424 12.7761424,11 12.5,11 C12.2238576,11 12,10.7761424 12,10.5 C12,10.2238576 12.2238576,10 12.5,10 Z M14.5,10 C14.7761424,10 15,10.2238576 15,10.5 C15,10.7761424 14.7761424,11 14.5,11 C14.2238576,11 14,10.7761424 14,10.5 C14,10.2238576 14.2238576,10 14.5,10 Z M12.5,8 C12.7761424,8 13,8.22385763 13,8.5 C13,8.77614237 12.7761424,9 12.5,9 C12.2238576,9 12,8.77614237 12,8.5 C12,8.22385763 12.2238576,8 12.5,8 Z M14.5,8 C14.7761424,8 15,8.22385763 15,8.5 C15,8.77614237 14.7761424,9 14.5,9 C14.2238576,9 14,8.77614237 14,8.5 C14,8.22385763 14.2238576,8 14.5,8 Z M12.5,6 C12.7761424,6 13,6.22385763 13,6.5 C13,6.77614237 12.7761424,7 12.5,7 C12.2238576,7 12,6.77614237 12,6.5 C12,6.22385763 12.2238576,6 12.5,6 Z M14.5,6 C14.7761424,6 15,6.22385763 15,6.5 C15,6.77614237 14.7761424,7 14.5,7 C14.2238576,7 14,6.77614237 14,6.5 C14,6.22385763 14.2238576,6 14.5,6 Z" fill="#7B659A" opacity="0.971512278"/>
    <circle fill="#7D679C" opacity="0.971512278" cx="37.5" cy="28.5" r="1"/>
    <circle fill="#7D679C" opacity="0.971512278" cx="39.5" cy="28.5" r="1"/>
  </g>
</svg>