<svg viewBox="0 0 48 48" xmlns="http://www.w3.org/2000/svg" xmlns:xlink="http://www.w3.org/1999/xlink">
  <defs>
    <path id="a" d="M12.940034 15.43L13.960034 15.41 13.970034 17.38 12.950034 17.42z"/>
    <path id="c" d="M33.100034 15.5L33.120034 17.66 13.620034 17.42 13.610034 15.43z"/>
    <path id="d" d="M0 0.47L1 0.53 1 0.53 1.01 0.53 1.02 0.54 1.03 0.54 0.03 0.47 0.02 0.47 0.01 0.47 0.01 0.47 0 0.47"/>
    <path id="f" d="M0.03 0.47L1.03 0.54 1.13 0.54 0.13 0.48 0.03 0.48"/>
    <path id="h" d="M0.13 0.47L1.13 0.53 1.2 0.53 0.2 0.47 0.12 0.47"/>
    <path id="j" d="M0.21 0.47L1.21 0.53 1.27 0.53 0.27 0.53 0.21 0.53"/>
    <path id="l" d="M0.27 0.53L1.27 0.59 1.33 0.59 0.33 0.53 0.27 0.53"/>
    <path id="m" d="M0.33 0.56L1.33 0.62 1.33 0.62 0.33 0.56 0.33 0.56"/>
    <path id="o" d="M0.38 0.59L1.38 0.65 1.38 0.65 0.38 0.58 0.38 0.58"/>
    <path id="p" d="M0.43 0.61L1.43 0.68 1.43 0.68 0.43 0.62 0.38 0.62"/>
    <path id="r" d="M0.48 0.65L1.47 0.71 1.49 0.71 1.5 0.72 1.51 0.73 1.52 0.74 0.52 0.68 0.51 0.67 0.5 0.66 0.49 0.65 0.48 0.65"/>
    <path id="t" d="M0.52 0.68L1.52 0.74 1.53 0.75 1.54 0.76 1.55 0.76 1.56 0.77 0.56 0.71 0.55 0.7 0.54 0.7 0.53 0.69 0.52 0.68"/>
    <path id="u" d="M0.56 0.71L1.56 0.77 1.57 0.78 1.58 0.79 1.59 0.8 1.6 0.81 0.6 0.75 0.59 0.74 0.58 0.73 0.57 0.72 0.56 0.71"/>
    <path id="v" d="M0.6 0.75L1.6 0.81 1.61 0.82 1.62 0.83 1.63 0.84 1.64 0.85 0.64 0.79 0.63 0.78 0.62 0.77 0.61 0.76 0.6 0.75"/>
    <path id="w" d="M0.64 0.79L1.64 0.85 1.65 0.86 1.66 0.87 1.67 0.88 1.68 0.89 0.68 0.83 0.67 0.82 0.66 0.81 0.65 0.8 0.64 0.79"/>
    <path id="x" d="M0.68 0.83L1.68 0.89 1.68 0.9 1.69 0.91 1.7 0.92 1.71 0.93 0.72 0.87 0.71 0.86 0.7 0.85 0.69 0.84 0.68 0.83"/>
    <path id="y" d="M0.72 0.87L1.72 0.93 1.72 0.93 1.72 0.93 1.72 0.93 0.72 0.87 0.72 0.87 0.72 0.87 0.72 0.87"/>
    <path id="z" d="M0.75 0.92L1.75 0.98 1.75 0.98 1.75 0.98 1.75 0.98 0.75 0.92 0.75 0.92 0.75 0.92 0.75 0.92"/>
    <path id="A" d="M0.79 0.97L1.79 1.03 1.79 1.03 1.79 1.03 1.79 1.03 0.79 1.03 0.79 1.03 0.79 1.03 0.79 1.03 0.79 1.03"/>
    <path id="B" d="M0.82 1.03L1.82 1.03 1.82 1.03 1.82 1.03 1.82 1.03 1.82 1.03 0.82 0.97 0.82 0.97 0.82 0.97 0.82 0.97"/>
    <path id="C" d="M0.85 1.08L1.85 1.14 1.85 1.14 1.85 1.14 1.85 1.14 0.85 1.08 0.85 1.08 0.85 1.08 0.85 1.08"/>
    <path id="D" d="M0.88 1.15L1.88 1.21 1.88 1.29 0.88 1.23 0.88 1.15"/>
    <path id="E" d="M0.92 1.23L1.92 1.29 1.92 1.37 0.92 1.32 0.92 1.23"/>
    <path id="F" d="M0.95 1.32L1.95 1.37 1.95 1.47 0.95 1.41 0.95 1.32"/>
    <path id="G" d="M0.98 1.47L1.98 1.53 1.98 1.74 0.98 1.69 0.98 1.47 0.98 1.41"/>
    <path id="H" d="M1.02 1.65L2.02 1.7 2.02 1.86 1.02 1.86 1.02 1.65"/>
    <path id="I" d="M1.03 1.8L2.03 1.86 2.03 1.87 2.03 1.88 2.03 1.89 2.03 1.9 1.03 1.84 1.03 1.83 1.03 1.82 1.03 1.81 1.03 1.8"/>
    <path id="K" d="M12.940034 15.43L12.950034 17.42 0.720034049 17.27 0.710034049 15.39z"/>
    <path id="L" d="M33.100034 15.5L33.120034 17.66 13.620034 17.42 13.610034 15.43z"/>
    <path id="M" d="M0 0.47L1 0.53 1 0.53 1.01 0.53 1.02 0.54 1.03 0.54 0.03 0.47 0.02 0.47 0.01 0.47 0.01 0.47 0 0.47"/>
    <path id="N" d="M0.03 0.47L1.03 0.54 1.13 0.54 0.13 0.48 0.03 0.48"/>
    <path id="O" d="M0.13 0.47L1.13 0.53 1.2 0.53 0.2 0.47 0.12 0.47"/>
    <path id="P" d="M0.21 0.47L1.21 0.53 1.27 0.53 0.27 0.53 0.21 0.53"/>
    <path id="Q" d="M0.27 0.53L1.27 0.59 1.33 0.59 0.33 0.53 0.27 0.53"/>
    <path id="R" d="M0.33 0.56L1.33 0.62 1.33 0.62 0.33 0.56 0.33 0.56"/>
    <path id="S" d="M0.38 0.59L1.38 0.65 1.38 0.65 0.38 0.58 0.38 0.58"/>
    <path id="T" d="M0.43 0.61L1.43 0.68 1.43 0.68 0.43 0.62 0.38 0.62"/>
    <path id="U" d="M0.48 0.65L1.47 0.71 1.49 0.71 1.5 0.72 1.51 0.73 1.52 0.74 0.52 0.68 0.51 0.67 0.5 0.66 0.49 0.65 0.48 0.65"/>
    <path id="V" d="M0.52 0.68L1.52 0.74 1.53 0.75 1.54 0.76 1.55 0.76 1.56 0.77 0.56 0.71 0.55 0.7 0.54 0.7 0.53 0.69 0.52 0.68"/>
    <path id="W" d="M0.56 0.71L1.56 0.77 1.57 0.78 1.58 0.79 1.59 0.8 1.6 0.81 0.6 0.75 0.59 0.74 0.58 0.73 0.57 0.72 0.56 0.71"/>
    <path id="X" d="M0.6 0.75L1.6 0.81 1.61 0.82 1.62 0.83 1.63 0.84 1.64 0.85 0.64 0.79 0.63 0.78 0.62 0.77 0.61 0.76 0.6 0.75"/>
    <path id="Y" d="M0.64 0.79L1.64 0.85 1.65 0.86 1.66 0.87 1.67 0.88 1.68 0.89 0.68 0.83 0.67 0.82 0.66 0.81 0.65 0.8 0.64 0.79"/>
    <path id="Z" d="M0.68 0.83L1.68 0.89 1.68 0.9 1.69 0.91 1.7 0.92 1.71 0.93 0.72 0.87 0.71 0.86 0.7 0.85 0.69 0.84 0.68 0.83"/>
    <path id="aa" d="M0.72 0.87L1.72 0.93 1.72 0.93 1.72 0.93 1.72 0.93 0.72 0.87 0.72 0.87 0.72 0.87 0.72 0.87"/>
    <path id="ab" d="M0.75 0.92L1.75 0.98 1.75 0.98 1.75 0.98 1.75 0.98 0.75 0.92 0.75 0.92 0.75 0.92 0.75 0.92"/>
    <path id="ac" d="M0.79 0.97L1.79 1.03 1.79 1.03 1.79 1.03 1.79 1.03 0.79 1.03 0.79 1.03 0.79 1.03 0.79 1.03 0.79 1.03"/>
    <path id="ad" d="M0.82 1.03L1.82 1.03 1.82 1.03 1.82 1.03 1.82 1.03 1.82 1.03 0.82 0.97 0.82 0.97 0.82 0.97 0.82 0.97"/>
    <path id="ae" d="M0.85 1.08L1.85 1.14 1.85 1.14 1.85 1.14 1.85 1.14 0.85 1.08 0.85 1.08 0.85 1.08 0.85 1.08"/>
    <path id="af" d="M0.88 1.15L1.88 1.21 1.88 1.29 0.88 1.23 0.88 1.15"/>
    <path id="ag" d="M0.92 1.23L1.92 1.29 1.92 1.37 0.92 1.32 0.92 1.23"/>
    <path id="ah" d="M0.95 1.32L1.95 1.37 1.95 1.47 0.95 1.41 0.95 1.32"/>
    <path id="ai" d="M0.98 1.47L1.98 1.53 1.98 1.74 0.98 1.69 0.98 1.47 0.98 1.41"/>
    <path id="aj" d="M1.02 1.65L2.02 1.7 2.02 1.86 1.02 1.86 1.02 1.65"/>
    <path id="ak" d="M1.03 1.8L2.03 1.86 2.03 1.87 2.03 1.88 2.03 1.89 2.03 1.9 1.03 1.84 1.03 1.83 1.03 1.82 1.03 1.81 1.03 1.8"/>
    <linearGradient x1="50%" y1="0%" x2="50%" y2="99.5547421%" id="b">
      <stop stop-color="#CDC2DC" offset="0%"/>
      <stop stop-color="#AFA5BE" offset="100%"/>
    </linearGradient>
    <linearGradient x1="50%" y1="0%" x2="50%" y2="99.5547421%" id="e">
      <stop stop-color="#CDC2DC" offset="0%"/>
      <stop stop-color="#AFA5BE" offset="100%"/>
    </linearGradient>
    <linearGradient x1="50%" y1="0%" x2="50%" y2="99.5547421%" id="g">
      <stop stop-color="#CDC2DC" offset="0%"/>
      <stop stop-color="#AFA5BE" offset="100%"/>
    </linearGradient>
    <linearGradient x1="50%" y1="0%" x2="50%" y2="99.5547421%" id="i">
      <stop stop-color="#CDC2DC" offset="0%"/>
      <stop stop-color="#AFA5BE" offset="100%"/>
    </linearGradient>
    <linearGradient x1="50%" y1="0%" x2="50%" y2="99.5547421%" id="k">
      <stop stop-color="#CDC2DC" offset="0%"/>
      <stop stop-color="#AFA5BE" offset="100%"/>
    </linearGradient>
    <linearGradient x1="50%" y1="0%" x2="50%" y2="99.5547421%" id="n">
      <stop stop-color="#CDC2DC" offset="0%"/>
      <stop stop-color="#AFA5BE" offset="100%"/>
    </linearGradient>
    <linearGradient x1="50%" y1="0%" x2="50%" y2="99.5547421%" id="q">
      <stop stop-color="#CDC2DC" offset="0%"/>
      <stop stop-color="#AFA5BE" offset="100%"/>
    </linearGradient>
    <linearGradient x1="50%" y1="0%" x2="50%" y2="99.5547421%" id="s">
      <stop stop-color="#CDC2DC" offset="0%"/>
      <stop stop-color="#AFA5BE" offset="100%"/>
    </linearGradient>
    <filter x="-34.4%" y="-68.0%" width="168.8%" height="235.9%" filterUnits="objectBoundingBox" id="J">
      <feOffset dx="3" in="SourceAlpha" result="shadowOffsetOuter1"/>
      <feGaussianBlur stdDeviation="1.5" in="shadowOffsetOuter1" result="shadowBlurOuter1"/>
      <feColorMatrix values="0 0 0 0 0.695378873 0 0 0 0 0.695378873 0 0 0 0 0.854308197 0 0 0 0.248279065 0" in="shadowBlurOuter1" result="shadowMatrixOuter1"/>
      <feMerge>
        <feMergeNode in="shadowMatrixOuter1"/>
        <feMergeNode in="SourceGraphic"/>
      </feMerge>
    </filter>
  </defs>
  <g fill="none" fill-rule="evenodd">
    <path fill="#6D6779" fill-rule="nonzero" d="M0.710034049 15.39L1.73003405 15.37 13.960034 15.41 12.940034 15.43z" transform="translate(11.000000, 12.000000)"/>
    <g transform="translate(11.000000, 12.000000)">
      <use fill="#FFF" xlink:href="#a"/>
      <use fill-opacity="0.5" fill="url(#b)" xlink:href="#a"/>
    </g>
    <path fill="#B0A6BF" d="M12.940034 15.43L12.950034 17.42 0.720034049 17.27 0.710034049 15.39z" transform="translate(11.000000, 12.000000)"/>
    <path fill="#6D6779" fill-rule="nonzero" d="M13.610034 15.43L14.630034 15.41 34.100034 15.48 33.100034 15.5z" transform="translate(11.000000, 12.000000)"/>
    <g transform="translate(11.000000, 12.000000)">
      <use fill="#FFF" xlink:href="#c"/>
      <use fill="#7D679C" xlink:href="#c"/>
    </g>
    <path fill="#B0A3C3" d="M33.100034 15.5L34.100034 15.48 34.120034 17.63 33.120034 17.66z" transform="translate(11.000000, 12.000000)"/>
    <g transform="translate(11.000000, 12.000000) translate(32.730034, 0.000000)">
      <use fill="#FFF" xlink:href="#d"/>
      <use fill-opacity="0.5" fill="url(#e)" xlink:href="#d"/>
    </g>
    <g transform="translate(11.000000, 12.000000) translate(32.730034, 0.000000)">
      <use fill="#FFF" xlink:href="#f"/>
      <use fill-opacity="0.5" fill="url(#g)" xlink:href="#f"/>
    </g>
    <g transform="translate(11.000000, 12.000000) translate(32.730034, 0.000000)">
      <use fill="#FFF" xlink:href="#h"/>
      <use fill-opacity="0.5" fill="url(#i)" xlink:href="#h"/>
    </g>
    <g transform="translate(11.000000, 12.000000) translate(32.730034, 0.000000)">
      <use fill="#FFF" xlink:href="#j"/>
      <use fill-opacity="0.5" fill="url(#k)" xlink:href="#j"/>
    </g>
    <g transform="translate(11.000000, 12.000000) translate(32.730034, 0.000000)">
      <use fill="#FFF" xlink:href="#l"/>
      <use fill-opacity="0.5" fill="url(#k)" xlink:href="#l"/>
    </g>
    <g transform="translate(11.000000, 12.000000) translate(32.730034, 0.000000)">
      <use fill="#FFF" xlink:href="#m"/>
      <use fill-opacity="0.5" fill="url(#n)" xlink:href="#m"/>
    </g>
    <g transform="translate(11.000000, 12.000000) translate(32.730034, 0.000000)">
      <use fill="#FFF" xlink:href="#o"/>
      <use fill-opacity="0.5" fill="url(#n)" xlink:href="#o"/>
    </g>
    <g transform="translate(11.000000, 12.000000) translate(32.730034, 0.000000)">
      <use fill="#FFF" xlink:href="#p"/>
      <use fill-opacity="0.5" fill="url(#q)" xlink:href="#p"/>
    </g>
    <g transform="translate(11.000000, 12.000000) translate(32.730034, 0.000000)">
      <use fill="#FFF" xlink:href="#r"/>
      <use fill-opacity="0.5" fill="url(#s)" xlink:href="#r"/>
    </g>
    <g transform="translate(11.000000, 12.000000) translate(32.730034, 0.000000)">
      <use fill="#FFF" xlink:href="#t"/>
      <use fill-opacity="0.5" fill="url(#s)" xlink:href="#t"/>
    </g>
    <g transform="translate(11.000000, 12.000000) translate(32.730034, 0.000000)">
      <use fill="#FFF" xlink:href="#u"/>
      <use fill-opacity="0.5" fill="url(#s)" xlink:href="#u"/>
    </g>
    <g transform="translate(11.000000, 12.000000) translate(32.730034, 0.000000)">
      <use fill="#FFF" xlink:href="#v"/>
      <use fill-opacity="0.5" fill="url(#s)" xlink:href="#v"/>
    </g>
    <g transform="translate(11.000000, 12.000000) translate(32.730034, 0.000000)">
      <use fill="#FFF" xlink:href="#w"/>
      <use fill-opacity="0.5" fill="url(#s)" xlink:href="#w"/>
    </g>
    <g transform="translate(11.000000, 12.000000) translate(32.730034, 0.000000)">
      <use fill="#FFF" xlink:href="#x"/>
      <use fill-opacity="0.5" fill="url(#e)" xlink:href="#x"/>
    </g>
    <g transform="translate(11.000000, 12.000000) translate(32.730034, 0.000000)">
      <use fill="#FFF" xlink:href="#y"/>
      <use fill-opacity="0.5" fill="url(#n)" xlink:href="#y"/>
    </g>
    <g transform="translate(11.000000, 12.000000) translate(32.730034, 0.000000)">
      <use fill="#FFF" xlink:href="#z"/>
      <use fill-opacity="0.5" fill="url(#n)" xlink:href="#z"/>
    </g>
    <g transform="translate(11.000000, 12.000000) translate(32.730034, 0.000000)">
      <use fill="#FFF" xlink:href="#A"/>
      <use fill-opacity="0.5" fill="url(#n)" xlink:href="#A"/>
    </g>
    <g transform="translate(11.000000, 12.000000) translate(32.730034, 0.000000)">
      <use fill="#FFF" xlink:href="#B"/>
      <use fill-opacity="0.5" fill="url(#n)" xlink:href="#B"/>
    </g>
    <g transform="translate(11.000000, 12.000000) translate(32.730034, 0.000000)">
      <use fill="#FFF" xlink:href="#C"/>
      <use fill-opacity="0.5" fill="url(#n)" xlink:href="#C"/>
    </g>
    <g transform="translate(11.000000, 12.000000) translate(32.730034, 0.000000)">
      <use fill="#FFF" xlink:href="#D"/>
      <use fill-opacity="0.5" fill="url(#n)" xlink:href="#D"/>
    </g>
    <g transform="translate(11.000000, 12.000000) translate(32.730034, 0.000000)">
      <use fill="#FFF" xlink:href="#E"/>
      <use fill-opacity="0.5" fill="url(#n)" xlink:href="#E"/>
    </g>
    <g transform="translate(11.000000, 12.000000) translate(32.730034, 0.000000)">
      <use fill="#FFF" xlink:href="#F"/>
      <use fill-opacity="0.5" fill="url(#n)" xlink:href="#F"/>
    </g>
    <g transform="translate(11.000000, 12.000000) translate(32.730034, 0.000000)">
      <use fill="#FFF" xlink:href="#G"/>
      <use fill-opacity="0.5" fill="url(#n)" xlink:href="#G"/>
    </g>
    <g transform="translate(11.000000, 12.000000) translate(32.730034, 0.000000)">
      <use fill="#FFF" xlink:href="#H"/>
      <use fill-opacity="0.5" fill="url(#n)" xlink:href="#H"/>
    </g>
    <g transform="translate(11.000000, 12.000000) translate(32.730034, 0.000000)">
      <use fill="#FFF" xlink:href="#I"/>
      <use fill-opacity="0.5" fill="url(#n)" xlink:href="#I"/>
    </g>
    <path d="M32.620034,0.47 C32.7721846,0.458995572 32.9244249,0.490135639 33.060034,0.56 C33.1987617,0.626377587 33.3215505,0.72188001 33.420034,0.84 C33.5302753,0.973388006 33.6150208,1.12592978 33.670034,1.29 C33.732181,1.46660484 33.7626489,1.65279778 33.760034,1.84 L33.880034,15.47 L33.100034,15.47 L13.610034,15.47 L12.940034,15.47 L0.710034049,15.47 L0.0700340488,15.47 L0,3.61 C-0.000945752946,3.44807034 0.0192247867,3.28670602 0.0600340488,3.13 C0.101694187,2.9859947 0.162219077,2.84813245 0.240034049,2.72 C0.316646207,2.6232814 0.407716638,2.53895693 0.510034049,2.47 C0.607997941,2.40403415 0.722083424,2.36600565 0.840034049,2.36 L32.620034,0.47 Z" fill="#BAAFC8" transform="translate(11.000000, 12.000000)"/>
    <path fill="#A292B9" d="M10 10L2 10 2 7 10 6.5z" transform="translate(11.000000, 12.000000)"/>
    <path fill="#DED8E5" d="M33.760034 1.84L34.760034 1.9 34.880034 15.48 33.880034 15.5z" transform="translate(11.000000, 12.000000)"/>
    <g filter="url(#J)" transform="translate(3.000000, 19.000000)">
      <path fill="#6D6779" fill-rule="nonzero" d="M0.710034049 15.39L1.73003405 15.37 13.960034 15.41 12.940034 15.43z"/>
      <path fill="#C1BACC" d="M12.940034 15.43L13.960034 15.41 13.970034 17.38 12.950034 17.42z"/>
      <use fill="#FFF" xlink:href="#K"/>
      <use fill="#7D679C" xlink:href="#K"/>
      <path fill="#6D6779" fill-rule="nonzero" d="M13.610034 15.43L14.630034 15.41 34.100034 15.48 33.100034 15.5z"/>
      <use fill="#FFF" xlink:href="#L"/>
      <use fill="#7D679C" xlink:href="#L"/>
      <path fill="#B0A3C3" d="M33.100034 15.5L34.100034 15.48 34.120034 17.63 33.120034 17.66z"/>
      <g transform="translate(32.730034, 0.000000)">
        <use fill="#FFF" xlink:href="#M"/>
        <use fill-opacity="0.5" fill="url(#e)" xlink:href="#M"/>
      </g>
      <g transform="translate(32.730034, 0.000000)">
        <use fill="#FFF" xlink:href="#N"/>
        <use fill-opacity="0.5" fill="url(#g)" xlink:href="#N"/>
      </g>
      <g transform="translate(32.730034, 0.000000)">
        <use fill="#FFF" xlink:href="#O"/>
        <use fill-opacity="0.5" fill="url(#i)" xlink:href="#O"/>
      </g>
      <g transform="translate(32.730034, 0.000000)">
        <use fill="#FFF" xlink:href="#P"/>
        <use fill-opacity="0.5" fill="url(#k)" xlink:href="#P"/>
      </g>
      <g transform="translate(32.730034, 0.000000)">
        <use fill="#FFF" xlink:href="#Q"/>
        <use fill-opacity="0.5" fill="url(#k)" xlink:href="#Q"/>
      </g>
      <g transform="translate(32.730034, 0.000000)">
        <use fill="#FFF" xlink:href="#R"/>
        <use fill-opacity="0.5" fill="url(#n)" xlink:href="#R"/>
      </g>
      <g transform="translate(32.730034, 0.000000)">
        <use fill="#FFF" xlink:href="#S"/>
        <use fill-opacity="0.5" fill="url(#n)" xlink:href="#S"/>
      </g>
      <g transform="translate(32.730034, 0.000000)">
        <use fill="#FFF" xlink:href="#T"/>
        <use fill-opacity="0.5" fill="url(#q)" xlink:href="#T"/>
      </g>
      <g transform="translate(32.730034, 0.000000)">
        <use fill="#FFF" xlink:href="#U"/>
        <use fill-opacity="0.5" fill="url(#s)" xlink:href="#U"/>
      </g>
      <g transform="translate(32.730034, 0.000000)">
        <use fill="#FFF" xlink:href="#V"/>
        <use fill-opacity="0.5" fill="url(#s)" xlink:href="#V"/>
      </g>
      <g transform="translate(32.730034, 0.000000)">
        <use fill="#FFF" xlink:href="#W"/>
        <use fill-opacity="0.5" fill="url(#s)" xlink:href="#W"/>
      </g>
      <g transform="translate(32.730034, 0.000000)">
        <use fill="#FFF" xlink:href="#X"/>
        <use fill-opacity="0.5" fill="url(#s)" xlink:href="#X"/>
      </g>
      <g transform="translate(32.730034, 0.000000)">
        <use fill="#FFF" xlink:href="#Y"/>
        <use fill-opacity="0.5" fill="url(#s)" xlink:href="#Y"/>
      </g>
      <g transform="translate(32.730034, 0.000000)">
        <use fill="#FFF" xlink:href="#Z"/>
        <use fill-opacity="0.5" fill="url(#e)" xlink:href="#Z"/>
      </g>
      <g transform="translate(32.730034, 0.000000)">
        <use fill="#FFF" xlink:href="#aa"/>
        <use fill-opacity="0.5" fill="url(#n)" xlink:href="#aa"/>
      </g>
      <g transform="translate(32.730034, 0.000000)">
        <use fill="#FFF" xlink:href="#ab"/>
        <use fill-opacity="0.5" fill="url(#n)" xlink:href="#ab"/>
      </g>
      <g transform="translate(32.730034, 0.000000)">
        <use fill="#FFF" xlink:href="#ac"/>
        <use fill-opacity="0.5" fill="url(#n)" xlink:href="#ac"/>
      </g>
      <g transform="translate(32.730034, 0.000000)">
        <use fill="#FFF" xlink:href="#ad"/>
        <use fill-opacity="0.5" fill="url(#n)" xlink:href="#ad"/>
      </g>
      <g transform="translate(32.730034, 0.000000)">
        <use fill="#FFF" xlink:href="#ae"/>
        <use fill-opacity="0.5" fill="url(#n)" xlink:href="#ae"/>
      </g>
      <g transform="translate(32.730034, 0.000000)">
        <use fill="#FFF" xlink:href="#af"/>
        <use fill-opacity="0.5" fill="url(#n)" xlink:href="#af"/>
      </g>
      <g transform="translate(32.730034, 0.000000)">
        <use fill="#FFF" xlink:href="#ag"/>
        <use fill-opacity="0.5" fill="url(#n)" xlink:href="#ag"/>
      </g>
      <g transform="translate(32.730034, 0.000000)">
        <use fill="#FFF" xlink:href="#ah"/>
        <use fill-opacity="0.5" fill="url(#n)" xlink:href="#ah"/>
      </g>
      <g transform="translate(32.730034, 0.000000)">
        <use fill="#FFF" xlink:href="#ai"/>
        <use fill-opacity="0.5" fill="url(#n)" xlink:href="#ai"/>
      </g>
      <g transform="translate(32.730034, 0.000000)">
        <use fill="#FFF" xlink:href="#aj"/>
        <use fill-opacity="0.5" fill="url(#n)" xlink:href="#aj"/>
      </g>
      <g transform="translate(32.730034, 0.000000)">
        <use fill="#FFF" xlink:href="#ak"/>
        <use fill-opacity="0.5" fill="url(#n)" xlink:href="#ak"/>
      </g>
      <path d="M32.620034,0.47 C32.7721846,0.458995572 32.9244249,0.490135639 33.060034,0.56 C33.1987617,0.626377587 33.3215505,0.72188001 33.420034,0.84 C33.5302753,0.973388006 33.6150208,1.12592978 33.670034,1.29 C33.732181,1.46660484 33.7626489,1.65279778 33.760034,1.84 L33.880034,15.47 L33.100034,15.47 L13.610034,15.47 L12.940034,15.47 L0.710034049,15.47 L0.0700340488,15.47 L0,3.61 C-0.000945752946,3.44807034 0.0192247867,3.28670602 0.0600340488,3.13 C0.101694187,2.9859947 0.162219077,2.84813245 0.240034049,2.72 C0.316646207,2.6232814 0.407716638,2.53895693 0.510034049,2.47 C0.607997941,2.40403415 0.722083424,2.36600565 0.840034049,2.36 L32.620034,0.47 Z" fill="#CAC1D5"/>
      <path fill="#DED8E5" d="M33.760034 1.84L34.760034 1.9 34.880034 15.48 33.880034 15.5z"/>
    </g>
    <path fill="#B0A3C3" d="M13 29L5 29 5 26 13 25.5z"/>
  </g>
</svg>